<?xml version="1.0" standalone="no"?>
<!DOCTYPE svg PUBLIC "-//W3C//DTD SVG 20010904//EN"
 "http://www.w3.org/TR/2001/REC-SVG-20010904/DTD/svg10.dtd">
<svg version="1.0" xmlns="http://www.w3.org/2000/svg"
 width="512.000000pt" height="512.000000pt" viewBox="0 0 512.000000 512.000000"
 preserveAspectRatio="xMidYMid meet">
<metadata>
Created by potrace 1.14, written by Peter Selinger 2001-2017
</metadata>
<g transform="translate(0.000000,512.000000) scale(0.100000,-0.100000)"
fill="#000000" stroke="none">
<path d="M2495 5113 c-28 -8 -114 -65 -150 -99 -17 -16 -48 -51 -70 -79 -22
-27 -43 -51 -47 -53 -5 -2 -8 -8 -8 -14 0 -5 -10 -24 -22 -41 -33 -45 -124
-220 -188 -362 -39 -86 -117 -301 -177 -490 -65 -206 -177 -628 -188 -712 -2
-11 -6 -32 -11 -45 -4 -12 -8 -32 -10 -43 -1 -11 -13 -74 -27 -140 -14 -66
-28 -136 -31 -155 -3 -19 -8 -46 -11 -60 -9 -47 -54 -335 -59 -380 -3 -25 -8
-63 -11 -85 -11 -82 -14 -112 -20 -170 -4 -33 -8 -71 -10 -85 -5 -28 -18 -193
-18 -227 -1 -20 -6 -23 -46 -24 -59 -1 -87 -4 -142 -19 -24 -7 -51 -14 -59
-15 -31 -7 -104 -36 -117 -46 -7 -6 -13 -9 -13 -5 0 5 -14 -2 -105 -54 -79
-46 -295 -233 -295 -256 0 -4 -8 -14 -18 -23 -28 -26 -105 -150 -144 -231 -55
-115 -75 -218 -66 -331 3 -32 74 -124 133 -172 84 -68 300 -170 575 -272 404
-149 569 -216 618 -248 150 -102 258 -138 487 -164 81 -10 514 -10 596 -1 76
9 155 23 213 39 23 6 46 12 51 14 6 1 23 7 38 13 16 7 31 12 34 12 3 0 36 17
72 37 36 21 68 38 71 38 3 1 32 14 65 29 79 36 318 131 425 168 88 31 308 112
348 129 12 5 32 13 45 18 69 28 244 115 294 146 80 51 166 143 182 194 51 172
-68 454 -286 677 -64 67 -185 164 -202 164 -6 0 -11 3 -11 8 0 4 -10 12 -23
18 -12 6 -42 22 -67 35 -25 13 -47 24 -50 24 -3 1 -17 7 -32 13 -68 28 -165
51 -253 59 -33 3 -61 6 -63 8 -1 1 -5 31 -7 66 -6 94 -15 200 -20 234 -2 17
-7 66 -11 110 -3 44 -8 89 -11 100 -5 21 -6 31 -17 130 -4 33 -9 67 -11 75 -3
9 -7 34 -9 55 -3 22 -7 49 -9 60 -3 11 -8 42 -11 69 -4 27 -9 52 -11 56 -2 3
-6 28 -10 56 -3 27 -7 56 -10 64 -2 8 -7 29 -9 45 -3 17 -8 41 -11 55 -2 14
-7 39 -11 55 -3 17 -7 37 -8 45 -2 8 -6 26 -9 40 -4 14 -9 36 -11 50 -2 14 -9
44 -15 68 -7 24 -14 55 -16 70 -2 15 -11 52 -19 84 -8 31 -18 69 -21 85 -8 38
-13 57 -15 61 -3 2 -4 8 -14 47 -37 150 -155 519 -221 690 -38 98 -35 93 -119
265 -79 164 -100 202 -128 234 -10 11 -18 24 -18 28 0 35 -173 208 -238 238
-46 22 -137 34 -177 23z"/>
</g>
</svg>
